# xmcd
#
# Track frame offsets: 
#        150
#        12253
#        26372
#        39198
#        55594
#        68277
#        78798
#        90479
#        106998
#        123779
#        135413
#        147337
#        159340
#        174398
#        186455
#        198514
#        210847
#        221472
#        234448
#        247181
#        257542
#        269410
#        280957
#        298388
#
# Disc length: 4123 seconds
#
# Revision: 2
# Processed by: cddbd v1.5.2PL0 Copyright (c) Steve Scherf et al.
# Submitted via: ExactAudioCopy v0.95b2
#
DISCID=45101918
DTITLE=Carlene Carter - Carlene Carter - Blue Nun
DYEAR=1978
DGENRE=Country
TTITLE0=Love Is Gone
TTITLE1=Smoke Dreams
TTITLE2=Between You And Me
TTITLE3=I Once Knew Love
TTITLE4=I've Been There Before
TTITLE5=Never Together
TTITLE6=Mr. Moon
TTITLE7=Alabama Morning
TTITLE8=Slow Dance
TTITLE9=Who Needs Words
TTITLE10=Oh How Happy
TTITLE11=Love Is A 4 Letter Verb
TTITLE12=That Boy
TTITLE13=300 Pounds Of Hongry
TTITLE14=Tougher Stuff
TTITLE15=I Need A Hit
TTITLE16=Rockababy
TTITLE17=Me And My .38
TTITLE18=Do Me Lover
TTITLE19=Too Many Teardrops
TTITLE20=Billy
TTITLE21=C'Mon Feet/Born To Move
TTITLE22=Think Dirty
TTITLE23=When You Comin' Back
EXTD=
EXTT0=
EXTT1=
EXTT2=
EXTT3=
EXTT4=
EXTT5=
EXTT6=
EXTT7=
EXTT8=
EXTT9=
EXTT10=
EXTT11=
EXTT12=
EXTT13=
EXTT14=
EXTT15=
EXTT16=
EXTT17=
EXTT18=
EXTT19=
EXTT20=
EXTT21=
EXTT22=
EXTT23=
PLAYORDER=
